# xmcd CD database file generated by Grip 3.3.1
# 
# Track frame offsets:
#       150
#       17788
#       34869
#       48927
#       60572
#       76096
#       101281
#       116454
#       131781
#       147920
#       164708
#       181999
#       200733
#       216980
#       235280
#       250316
#       274500
#       292891
# 
# Disc length: 4144 seconds
# 
# Revision: 1
# Processed by: cddbd v1.5.2PL0 Copyright (c) Steve Scherf et al.
# Submitted via: Grip 3.3.1
# 
DISCID=05102e12
DTITLE=Christina Branco - Christina Branco - Ideal
DYEAR=2014
DGENRE=Chanson
TTITLE0=1. Se fores, não chores por mim
TTITLE1=2. Bomba relógio
TTITLE2=3. Rosa
TTITLE3=4. Margarida
TTITLE4=5. Não há só tangos em Paris
TTITLE5=6. Alice no país dos matraquilhos
TTITLE6=7. Histórias do tempo
TTITLE7=8. Era um redondo vocábulo
TTITLE8=9. A Laurindinha
TTITLE9=10. Porque me olhas assim
TTITLE10=11. Ai vida
TTITLE11=12. Cherokee Louise
TTITLE12=13. Longo do sul
TTITLE13=14. Navio triste
TTITLE14=15. Abalara
TTITLE15=16. Construção
TTITLE16=17. Alfonsina y el mar
TTITLE17=18. Avec le temps
EXTD=
EXTT0=
EXTT1=
EXTT2=
EXTT3=
EXTT4=
EXTT5=
EXTT6=
EXTT7=
EXTT8=
EXTT9=
EXTT10=
EXTT11=
EXTT12=
EXTT13=
EXTT14=
EXTT15=
EXTT16=
EXTT17=
PLAYORDER=
